# xmcd CD database file generated by Grip 2.95
# 
# Track frame offsets:
#       150
#       12097
#       28427
#       42627
#       52365
#       76412
#       93587
#       108637
#       126740
#       143860
#       163725
#       185162
# 
# Disc length: 2620 seconds
# 
# Revision: 3
# Processed by: cddbd v1.4b42PL0 Copyright (c) Steve Scherf et al.
# Submitted via: Grip 2.95
# 
DISCID=bd0a3a0c
DTITLE=Dave Lindholm - Jose Blues
DYEAR=1900
DGENRE=
TTITLE0=Missing
TTITLE1=There's Been Times
TTITLE2=Let The Water Run Down
TTITLE3=She Likes Jazz
TTITLE4=Needless To Say
TTITLE5=Stay Here
TTITLE6=I'm Gonna Roll
TTITLE7=Getting Ready For The Wedding
TTITLE8=Simply
TTITLE9=Down To Where
TTITLE10=Tired Of Working For You
TTITLE11=Finally Home
EXTD=
EXTT0=
EXTT1=
EXTT2=
EXTT3=
EXTT4=
EXTT5=
EXTT6=
EXTT7=
EXTT8=
EXTT9=
EXTT10=
EXTT11=
PLAYORDER=
